<svg xmlns="http://www.w3.org/2000/svg" xmlns:xlink="http://www.w3.org/1999/xlink" viewBox="0 0 26 26" id="User"><defs><linearGradient id="b" x1="906.952" x2="931.379" y1="515.915" y2="546.094" gradientTransform="translate(-704.407 625.151) scale(.78112)" gradientUnits="userSpaceOnUse" xlink:href="#a"></linearGradient><linearGradient id="a"><stop offset="0" stop-color="#2b4162" class="stopColorffd800 svgShape"></stop><stop offset="1" stop-color="#262626" class="stopColorff6100 svgShape"></stop></linearGradient></defs><g transform="translate(-1.03 -1096.225) scale(1.06642)" fill="#12100e" class="color000000 svgShape"><rect width="24.381" height="24.381" x=".965" y="1027.95" fill="url(#b)" rx="5.152" ry="5.152"></rect><path style="line-height:normal;text-indent:0;text-align:start;text-decoration-line:none;text-decoration-style:solid;text-decoration-color:#000;text-transform:none;block-progression:tb;isolation:auto;mix-blend-mode:normal" fill="#fdfdfd" d="M13.156 1032.639a3.291 3.291 0 0 0-3.282 3.286 3.29 3.29 0 0 0 3.282 3.285 3.29 3.29 0 0 0 3.282-3.285 3.291 3.291 0 0 0-3.282-3.286zm0 .939c1.3 0 2.344 1.045 2.344 2.347a2.339 2.339 0 0 1-2.344 2.348 2.339 2.339 0 0 1-2.345-2.348 2.339 2.339 0 0 1 2.345-2.347zm-3.013 6.57c-1.442 0-2.62 1.169-2.62 2.605v4.42a.469.47 0 0 0 .468.47h10.331a.469.47 0 0 0 .467-.47v-4.42c0-1.437-1.179-2.604-2.62-2.604h-6.026zm0 .94h6.025c.943 0 1.685.738 1.685 1.665v3.95H8.46v-3.95c0-.927.74-1.665 1.683-1.665z" color="#000" font-family="sans-serif" font-weight="400" overflow="visible" class="colorffffff svgShape"></path></g></svg>